<svg width="11" height="20" viewBox="0 0 11 20" fill="none" xmlns="http://www.w3.org/2000/svg">
<path d="M10.5794 0.440231C10.8487 0.722196 11 1.10457 11 1.50327C11 1.90197 10.8487 2.28434 10.5794 2.56631L3.46782 10.0091L10.5794 17.4518C10.8411 17.7354 10.9859 18.1152 10.9826 18.5095C10.9793 18.9037 10.8282 19.2808 10.5619 19.5596C10.2955 19.8384 9.93515 19.9965 9.55846 19.9999C9.18177 20.0034 8.81886 19.8518 8.5479 19.5779L0.420639 11.0721C0.151304 10.7902 -4.54938e-07 10.4078 -4.37511e-07 10.0091C-4.20083e-07 9.61038 0.151304 9.228 0.420639 8.94604L8.5479 0.440231C8.81732 0.158351 9.18268 -7.94376e-08 9.56363 -6.27856e-08C9.94459 -4.61336e-08 10.3099 0.158351 10.5794 0.440231Z" fill="#5E51FF"/>
</svg>
