<svg width="11" height="20" viewBox="0 0 11 20" fill="none" xmlns="http://www.w3.org/2000/svg">
<path d="M0.420639 19.5598C0.151304 19.2778 1.31719e-08 18.8954 1.79263e-08 18.4967C2.26807e-08 18.098 0.151304 17.7157 0.420639 17.4337L7.53218 9.99092L0.420639 2.54815C0.158937 2.26457 0.0141281 1.88476 0.0174014 1.49052C0.0206748 1.09629 0.171769 0.719168 0.43814 0.44039C0.704511 0.161613 1.06485 0.00348283 1.44154 5.72376e-05C1.81823 -0.00336836 2.18114 0.148186 2.4521 0.422075L10.5794 8.92789C10.8487 9.20985 11 9.59222 11 9.99092C11 10.3896 10.8487 10.772 10.5794 11.054L2.4521 19.5598C2.18268 19.8416 1.81732 20 1.43637 20C1.05541 20 0.690055 19.8416 0.420639 19.5598Z" fill="#5E51FF"/>
</svg>
