<svg width="22" height="24" viewBox="0 0 22 24" fill="none" xmlns="http://www.w3.org/2000/svg">
<path d="M1.66675 6.16667H20.3334M8.66675 10.8333V17.8333M13.3334 10.8333V17.8333M2.83341 6.16667L4.00008 20.1667C4.00008 20.7855 4.24591 21.379 4.6835 21.8166C5.12108 22.2542 5.71458 22.5 6.33341 22.5H15.6667C16.2856 22.5 16.8791 22.2542 17.3167 21.8166C17.7542 21.379 18.0001 20.7855 18.0001 20.1667L19.1667 6.16667M7.50008 6.16667V2.66667C7.50008 2.35725 7.623 2.0605 7.84179 1.84171C8.06058 1.62292 8.35733 1.5 8.66675 1.5H13.3334C13.6428 1.5 13.9396 1.62292 14.1584 1.84171C14.3772 2.0605 14.5001 2.35725 14.5001 2.66667V6.16667" stroke="#FF7979" stroke-width="2" stroke-linecap="round" stroke-linejoin="round"/>
</svg>
